<svg height="40" viewBox="0 0 56 56" width="40" xmlns="http://www.w3.org/2000/svg"><g id="Page-1" fill="none" fill-rule="evenodd"><g id="134---Copy-Files" fill="rgb(255,165,0)" fill-rule="nonzero"><path id="Shape" d="m11 8v-6.586l-9.586 9.586h6.586c1.65685425 0 3-1.34314575 3-3z"/><path id="Shape" d="m44.8 42.4c.1259029-.0944272.2-.2426213.2-.4s-.0740971-.3055728-.2-.4l-4.8-3.6v.5c0 .8284271-.6715729 1.5-1.5 1.5h-10c-.2761424 0-.5.2238576-.5.5v3c0 .2761424.2238576.5.5.5h10c.8284271 0 1.5.6715729 1.5 1.5v.5z"/><path id="Shape" d="m42 49v-2l-1.6 1.2c-.4545265.3408949-1.0626444.3957288-1.5708204.1416408s-.8291796-.7734827-.8291796-1.3416408v-1h-10.5c-.8284271 0-1.5-.6715729-1.5-1.5v-5c0-.8284271.6715729-1.5 1.5-1.5h10.5v-1c0-.5681581.3210036-1.0875528.8291796-1.3416408s1.1162939-.1992541 1.5708204.1416408l1.6 1.2v-34c0-1.65685425-1.3431458-3-3-3h-26v8c-.0033061 2.7600532-2.2399468 4.9966939-5 5h-8v36c0 1.6568542 1.34314575 3 3 3h36c1.6568542 0 3-1.3431458 3-3zm-5-47h2c.5522847 0 1 .44771525 1 1s-.4477153 1-1 1h-2c-.5522847 0-1-.44771525-1-1s.4477153-1 1-1zm-10 0h6c.5522847 0 1 .44771525 1 1s-.4477153 1-1 1h-6c-.5522847 0-1-.44771525-1-1s.4477153-1 1-1zm-6 14h15c.5522847 0 1 .4477153 1 1s-.4477153 1-1 1h-15c-.5522847 0-1-.4477153-1-1s.4477153-1 1-1zm16 6c0 .5522847-.4477153 1-1 1h-9c-.5522847 0-1-.4477153-1-1s.4477153-1 1-1h9c.5522847 0 1 .4477153 1 1zm-30-6h9c.5522847 0 1 .4477153 1 1s-.4477153 1-1 1h-9c-.55228475 0-1-.4477153-1-1s.44771525-1 1-1zm0 5h15c.5522847 0 1 .4477153 1 1s-.4477153 1-1 1h-15c-.55228475 0-1-.4477153-1-1s.44771525-1 1-1zm9 7h-9c-.55228475 0-1-.4477153-1-1s.44771525-1 1-1h9c.5522847 0 1 .4477153 1 1s-.4477153 1-1 1zm4-1c0-.5522847.4477153-1 1-1h15c.5522847 0 1 .4477153 1 1s-.4477153 1-1 1h-15c-.5522847 0-1-.4477153-1-1z"/><path id="Shape" d="m53 4h-9v2h3c.5522847 0 1 .44771525 1 1s-.4477153 1-1 1h-3v12h6c.5522847 0 1 .4477153 1 1s-.4477153 1-1 1h-6v3h6c.5522847 0 1 .4477153 1 1s-.4477153 1-1 1h-6v3h6c.5522847 0 1 .4477153 1 1s-.4477153 1-1 1h-6v6.5l3.067 2.3c.3777088.2832816.6.727864.6 1.2s-.2222912.9167184-.6 1.2l-3.067 2.3v3.5c-.0033061 2.7600532-2.2399468 4.9966939-5 5h-24.816c.4222546 1.1943509 1.5492146 1.9947486 2.816 2h36c1.6568542 0 3-1.3431458 3-3v-46c0-1.65685425-1.3431458-3-3-3zm0 4h-2c-.5522847 0-1-.44771525-1-1s.4477153-1 1-1h2c.5522847 0 1 .44771525 1 1s-.4477153 1-1 1z"/></g></g></svg>